<?xml version="1.0" encoding="UTF-8"?>
<svg id="Laag_1" data-name="Laag 1" xmlns="http://www.w3.org/2000/svg" xmlns:xlink="http://www.w3.org/1999/xlink" viewBox="0 0 195.4 93.88">
  <defs>
    <style>
      .cls-1 {
        fill: #fff;
      }

      .cls-2 {
        fill: url(#Naamloos_verloop_56);
      }

      .cls-3 {
        fill: #ec6521;
      }

      .cls-4 {
        fill: #ececec;
      }
    </style>
    <linearGradient id="Naamloos_verloop_56" data-name="Naamloos verloop 56" x1="3.14" y1="68.39" x2="101.23" y2="68.39" gradientUnits="userSpaceOnUse">
      <stop offset="0" stop-color="#ed8220"/>
      <stop offset=".71" stop-color="#ec6e20"/>
      <stop offset="1" stop-color="#ec6521"/>
    </linearGradient>
  </defs>
  <g>
    <path class="cls-2" d="M97.23,85.13c-1.31,4.15-3.65,6.76-6.31,8.75H9.55c1.62-2.99,4.1-5.53,7.34-7.21-5.12-.29-9.75,2.6-13.44,5.77-.09.06-.23.21-.31.06,1.02-7.96,7.14-15.09,15.37-16.27-4.41-2.54-9.69-2.67-14.09-.13-.16.08-.12.15-.31-.05,3.99-6.87,12.25-10.89,20.16-9.3-3.26-4.28-8.91-5.77-14.13-5.07,6.2-6,16.89-7.29,24.23-2.62-1.82-5.3-7.31-9.16-12.82-9.87-.07-.26-.01-.18.12-.27,9.76-3.87,21.16-.86,28.38,6.49-.07-5.45-3.6-9.41-7.61-12.5,8.17-.04,15.86,5.13,19.75,12.02.19.17.2-.04.21-.19.42-4.2-3.22-10.8-3.22-10.8,11.31,2,14.52,16.51,14.52,16.51.97-3.11.7-6.47.7-6.47,5.34,3.71,6.86,10.29,7.97,16.27,1.42,5.11,5.82,10.4,11.64,10.05.39-2.56,3.15-4.79,5.44-3.39,3.31,2.48,1.69,8.42-2.22,8.22Z"/>
    <path class="cls-4" d="M77.2,81.11c-.08,6.98-8.06,10.04-12.14,4.2-2.61-3.73-1.62-10.3,2.99-11.75,4.8-1.51,9.21,2.77,9.16,7.54Z"/>
    <path d="M70.73,74.96c-1.81.16-3.13,1.97-2.94,4.05s1.8,3.64,3.61,3.49,3.13-1.97,2.94-4.05-1.8-3.64-3.61-3.49ZM71.87,78.27c-.55.05-1.04-.43-1.1-1.06s.34-1.18.89-1.23,1.04.43,1.1,1.06-.34,1.18-.89,1.23Z"/>
  </g>
  <g>
    <g>
      <path d="M183.42,43.18c-1.39-1.4-3.09-2.13-5.01-3.14,1.23-1.84,2.58-3.47,3.59-5.41,1.65-3.19,2.15-6.73,1.49-10.25-.99-5.34-6.31-9.58-11.18-11.31-2.96-1.06-5.98-1.6-9.13-1.58-5.5.01-10.46,2.52-14.62,6.13-.21-6.73-2.52-12.08-9.09-14.24-8.3-2.01-17.58-.88-22.78,6.59-5.02-4.52-12.62-8.71-19.16-6.26-3.6,1.35-6.18,4.17-7.98,7.49-.77,1.44-1.47,2.67-1.73,4.36-.41,2.76.12,5.4,1.16,8.09-4.69.68-7.89,1.97-9.84,6.23-.53,1.15-1.02,2.16-1.36,3.4-1.05,3.8-.72,7.59,1.14,11.11,1.46,2.77,3.81,4.85,6.58,6.43,3.91,2.2,8.19,3.18,12.64,3.54,1.94.16,3.69.18,5.77-.27-.87,2.94-5.79,9.81-3.27,12.13.71.65,1.53.82,2.5.58,7.95-2.01,15.42-5.09,23.13-8.18.96,1.67,2.05,2.92,3.55,3.96,3.56,2.47,7.53,4,11.85,4.6,7.22.99,12.54-1.89,18.07-6.03,4.04,2.71,8.86,3.76,13.53,2.48,4.76-1.31,8.82-4.45,11.39-8.65,2.35-3.85,1.88-8.67-1.26-11.83ZM179,57.06c-5.71,4.83-13.14,3.71-19.23-.12-1.9,1.81-3.83,3.42-6.18,4.52-4.44,2.25-9.26,2.51-14.06,1.21-5.09-1.38-9.6-4.09-12.79-8.32l-16.89,6.51c-2.13.82-4.16,1.43-6.38,1.91-2.31,1.09,1.54-6.65,1.79-7.19l2.61-5.54c.14-.31.07-.69-.1-.84-.85-.79-1.27.74-4.24,1.08-5.61.65-11.33-.42-16.34-3.08-2.9-1.54-5.17-3.72-6.56-6.64-1.21-2.53-1.24-5.22-.86-7.94.43-3.07,2.09-5.48,5.03-6.65,2.4-.95,4.99-1.24,7.62-1.06.27.01.53-.02.63-.2.12-.2.16-.54-.02-.79-1.01-1.43-1.83-2.88-2.39-4.52-1.39-3.97-.46-8.09,2.44-11.11,1.78-1.85,3.81-3.31,6.37-3.83,6.17-1.26,12.67,2.94,16.99,6.97.37.35.84.13,1.04-.23,2.43-4.26,7.33-6.74,12.13-7.27,3.05-.34,6.08-.18,9.06.54,3.36.81,5.84,3.02,7.24,6.12,1.29,2.84,1.48,5.88,1.32,8.96,0,.17.32.4.34.53.04.19.44-.06.59-.21,5.08-5.26,12.13-8.52,19.57-6.68,4.26,1.06,8.22,3.27,11.29,6.36,2.45,2.46,3.18,5.85,2.24,9.09-1.22,4.18-4.48,8.03-7.68,10.83-.21.18-.29.4-.25.56.05.24.17.44.46.51,3.57.87,8.91,2.67,10.21,6.49,1.23,3.6-2.39,7.83-5,10.04Z"/>
      <path class="cls-1" d="M179,57.06c-5.71,4.83-13.14,3.71-19.23-.12-1.9,1.81-3.83,3.42-6.18,4.52-4.44,2.25-9.26,2.51-14.06,1.21-5.09-1.38-9.6-4.09-12.79-8.32l-16.89,6.51c-2.13.82-4.16,1.43-6.38,1.91-2.31,1.09,1.54-6.65,1.79-7.19l2.61-5.54c.14-.31.07-.69-.1-.84-.85-.79-1.27.74-4.24,1.08-5.61.65-11.33-.42-16.34-3.08-2.9-1.54-5.17-3.72-6.56-6.64-1.21-2.53-1.24-5.22-.86-7.94.43-3.07,2.09-5.48,5.03-6.65,2.4-.95,4.99-1.24,7.62-1.06.27.01.53-.02.63-.2.12-.2.16-.54-.02-.79-1.01-1.43-1.83-2.88-2.39-4.52-1.39-3.97-.46-8.09,2.44-11.11,1.78-1.85,3.81-3.31,6.37-3.83,6.17-1.26,12.67,2.94,16.99,6.97.37.35.84.13,1.04-.23,2.43-4.26,7.33-6.74,12.13-7.27,3.05-.34,6.08-.18,9.06.54,3.36.81,5.84,3.02,7.24,6.12,1.29,2.84,1.48,5.88,1.32,8.96,0,.17.32.4.34.53.04.19.44-.06.59-.21,5.08-5.26,12.13-8.52,19.57-6.68,4.26,1.06,8.22,3.27,11.29,6.36,2.45,2.46,3.18,5.85,2.24,9.09-1.22,4.18-4.48,8.03-7.68,10.83-.21.18-.29.4-.25.56.05.24.17.44.46.51,3.57.87,8.91,2.67,10.21,6.49,1.23,3.6-2.39,7.83-5,10.04Z"/>
      <path d="M154.44,71.85c-3.75,1.64-9.08.54-11.57-3.01,4.31,3.15,11.21,2.05,14.72-2.17.2,2.3-1.11,4.29-3.15,5.18Z"/>
      <path d="M193.05,27.38c-.92,3.65-4.2,4.83-7.67,4.43,2.23-.67,3.87-2.15,4.86-4.25.68-1.45,1.25-2.87,1.1-4.54,1.58.93,2.14,2.67,1.71,4.36Z"/>
      <path d="M96.71,2.84c-6.45.78-7.63,1.88-9.65,8.36-.47-1.9-.51-4.03.46-5.92,1.68-3.27,5.94-4.02,9.19-2.44Z"/>
      <path d="M186.05,28.19c.7-2.25,2.05-5.56-1.14-7.77,1.28-.41,2.8.11,3.61,1.2,1.38,1.89-.03,5.02-2.47,6.57Z"/>
    </g>
    <g>
      <path class="cls-3" d="M108.88,28.09c-.61.41-1.32.56-2.13.46l-2.53-.3s-.08-.03-.11-.06c-.02-.04-.03-.08-.01-.12l2.24-9.2s.04-.08.08-.11c.04-.03.08-.04.12-.03l2.24.26c.81.09,1.42.35,1.82.77.4.42.56.98.48,1.7-.01.09-.04.25-.08.47-.22.89-.68,1.51-1.39,1.85-.04.02-.05.05-.02.08.48.49.68,1.12.59,1.9,0,.08-.04.22-.08.42-.19.86-.6,1.5-1.21,1.9ZM107.79,26.63c.22-.2.38-.5.48-.9.02-.06.03-.16.05-.29.04-.32,0-.58-.12-.78-.12-.2-.3-.32-.55-.34l-.61-.07s-.07.02-.09.06l-.58,2.42s0,.07.05.08l.59.07c.29.03.55-.05.77-.25ZM107.86,20.65l-.53,2.14s0,.07.05.08l.48.06c.35.04.64-.05.87-.28.23-.23.37-.56.42-1,.03-.29-.01-.53-.14-.69s-.32-.27-.59-.3l-.48-.06s-.07.01-.08.06Z"/>
      <path class="cls-3" d="M110.42,28.93s-.03-.08-.01-.12l2.24-9.2s.04-.08.08-.11c.04-.03.08-.04.12-.03l1.56.18c.1.01.15.07.13.18l-1.86,7.65s0,.07.05.08l2.8.33c.1.01.15.07.13.18l-.32,1.32s-.04.08-.08.11c-.04.03-.08.04-.12.03l-4.61-.54s-.08-.03-.11-.06Z"/>
      <path class="cls-3" d="M116.12,29.6s-.03-.08-.01-.12l2.24-9.2s.04-.08.08-.11c.04-.03.08-.04.12-.03l1.56.18c.1.01.15.07.13.18l-2.24,9.2s-.04.08-.08.11c-.04.03-.08.04-.13.03l-1.56-.18s-.08-.03-.1-.06ZM119.7,29.58c-.37-.44-.52-1-.44-1.67,0-.08.03-.21.07-.4l.24-.94s.04-.08.08-.11c.04-.03.08-.04.12-.03l1.56.18c.1.01.15.07.13.18l-.24.97s-.03.09-.04.18c-.02.21.01.39.11.54.1.15.25.23.44.25.23.03.44-.03.62-.18.18-.15.3-.35.36-.62l1.69-6.94s.04-.08.08-.11c.04-.03.08-.04.12-.03l1.57.18s.08.03.1.06c.02.04.03.08.01.12l-1.69,6.91c-.18.77-.58,1.36-1.18,1.77-.6.41-1.3.57-2.09.48-.72-.08-1.26-.35-1.64-.79Z"/>
      <path class="cls-3" d="M131.99,23.36s-.08.04-.12.04l-2.79-.33s-.07.01-.08.06l-.53,2.15s.01.07.05.08l1.6.19s.08.03.1.06c.02.04.03.08.01.12l-.32,1.32s-.04.08-.08.11c-.04.03-.08.04-.12.04l-1.59-.19c-.06,0-.09.01-.09.06l-.9,3.72s-.04.08-.08.11-.08.04-.13.03l-1.56-.18s-.08-.03-.1-.06c-.02-.04-.03-.07-.01-.12l2.24-9.2s.04-.08.08-.11c.04-.03.08-.04.12-.03l4.58.54s.08.03.1.06c.02.04.03.08.01.12l-.32,1.32s-.04.08-.08.11Z"/>
      <path class="cls-3" d="M134.38,31.28c-.38-.46-.53-1.04-.44-1.75.01-.09.04-.24.08-.44l1.06-4.36c.2-.82.6-1.44,1.21-1.87.61-.43,1.33-.6,2.15-.5.75.09,1.31.36,1.7.82.38.46.54,1.05.45,1.75-.01.09-.04.24-.08.44l-1.06,4.36c-.2.82-.61,1.44-1.22,1.87-.61.43-1.33.6-2.15.5-.75-.09-1.31-.36-1.69-.82ZM137.13,30.26c.19-.16.32-.38.39-.67l1.1-4.52s.02-.09.03-.16c.03-.25-.01-.45-.12-.62-.11-.16-.28-.26-.5-.28-.25-.03-.47.04-.66.2-.19.16-.32.38-.39.67l-1.1,4.52s-.02.09-.03.16c-.03.25.01.45.12.62.11.16.27.26.48.28.26.03.48-.04.67-.19Z"/>
      <path class="cls-3" d="M146.53,24.07c.34.49.47,1.09.38,1.82-.03.23-.06.4-.09.52-.2.84-.59,1.49-1.16,1.95-.57.46-1.22.64-1.95.56l-.99-.12s-.07.02-.09.06l-.87,3.62s-.04.08-.08.11c-.04.03-.08.04-.13.03l-1.56-.18s-.08-.03-.11-.06c-.02-.04-.03-.08-.01-.12l2.24-9.21s.04-.08.08-.11c.04-.03.08-.04.12-.04l2.71.32c.67.08,1.18.36,1.52.85ZM144.52,27.06c.24-.25.39-.62.45-1.09.04-.32,0-.58-.13-.78s-.31-.31-.56-.34l-.59-.07s-.07.01-.08.06l-.59,2.39s.01.07.05.08l.59.07c.32.04.61-.07.85-.32Z"/>
      <path class="cls-3" d="M148.8,33.43s-.03-.08-.01-.12l2.24-9.2s.04-.08.08-.11c.04-.03.08-.04.12-.03l2.42.28c.75.09,1.31.36,1.69.82.38.46.53,1.03.45,1.73-.01.09-.04.23-.08.41l-1.04,4.25c-.2.8-.6,1.41-1.2,1.83-.6.42-1.32.59-2.14.49l-2.42-.28s-.08-.03-.11-.06ZM151.1,32.05l.61.06c.24.02.46-.06.67-.24.2-.18.35-.44.43-.76l.97-4c.02-.05.03-.13.04-.23.03-.28,0-.5-.11-.68-.1-.18-.27-.28-.5-.3l-.59-.07s-.07.01-.08.06l-1.48,6.1s0,.07.05.08Z"/>
      <path class="cls-3" d="M161.88,26.86s-.08.04-.12.03l-2.8-.33s-.07.01-.08.06l-.53,2.15s.01.07.05.08l1.62.19s.08.03.1.06.03.08.01.12l-.32,1.32s-.04.08-.08.11c-.04.03-.08.04-.12.03l-1.6-.19c-.06,0-.09.01-.09.06l-.52,2.17s0,.07.05.08l2.79.33s.08.03.11.06c.03.04.04.08.02.12l-.32,1.32s-.04.08-.08.11c-.04.03-.08.04-.12.03l-4.6-.54s-.08-.03-.1-.06c-.02-.04-.03-.08-.01-.12l2.24-9.2s.04-.08.08-.11.08-.04.12-.03l4.6.54s.08.03.1.06c.02.04.03.08.01.12l-.32,1.32s-.04.08-.08.11Z"/>
      <path class="cls-3" d="M115.75,35.96s.08-.04.12-.03l1.57.18s.08.03.1.06c.02.04.03.08.01.12l-2.24,9.2s-.04.08-.08.11c-.04.03-.08.04-.12.04l-1.57-.18s-.08-.03-.1-.06-.03-.08-.01-.12l.91-3.71s-.01-.07-.05-.08l-1.34-.16c-.06,0-.09.01-.09.06l-.9,3.72s-.04.08-.08.11c-.04.03-.08.04-.13.03l-1.56-.18s-.08-.03-.1-.06c-.02-.04-.03-.08-.01-.12l2.24-9.2s.04-.08.08-.11.08-.04.12-.03l1.56.18c.1.01.15.07.13.18l-.91,3.7s.01.07.05.08l1.34.16s.07-.02.09-.06l.9-3.7s.04-.08.08-.11Z"/>
      <path class="cls-3" d="M117.34,45.38c-.38-.46-.53-1.04-.45-1.75.01-.09.04-.24.08-.44l1.06-4.36c.2-.82.6-1.44,1.21-1.87.61-.43,1.32-.6,2.14-.5.75.09,1.31.36,1.7.82.38.46.54,1.04.45,1.75-.01.09-.04.24-.08.44l-1.06,4.36c-.2.82-.61,1.44-1.22,1.87s-1.33.6-2.15.5c-.75-.09-1.31-.36-1.69-.82ZM120.09,44.36c.19-.16.32-.38.39-.67l1.1-4.52s.03-.09.03-.16c.03-.25-.01-.46-.12-.62-.11-.16-.28-.26-.5-.28-.25-.03-.47.04-.66.2-.19.16-.32.38-.39.67l-1.1,4.52s-.02.09-.03.16c-.03.25.01.45.12.62.11.16.27.26.48.28.26.03.48-.04.67-.19Z"/>
      <path class="cls-3" d="M123.66,46.12c-.38-.46-.53-1.04-.45-1.75.01-.09.04-.24.08-.44l1.06-4.36c.2-.82.6-1.44,1.21-1.87.61-.43,1.33-.6,2.15-.5.75.09,1.31.36,1.7.82.38.46.54,1.04.45,1.75-.01.09-.04.24-.08.44l-1.06,4.36c-.2.82-.61,1.44-1.22,1.87-.61.43-1.33.6-2.15.5-.75-.09-1.31-.36-1.69-.82ZM126.41,45.1c.19-.16.32-.38.39-.67l1.1-4.52s.02-.09.03-.16c.03-.25-.01-.45-.12-.62-.11-.16-.28-.26-.5-.28-.25-.03-.47.04-.66.2-.19.16-.32.38-.39.67l-1.1,4.52s-.02.09-.03.16c-.03.25.01.45.12.62.11.16.27.26.48.28.26.03.48-.03.67-.19Z"/>
      <path class="cls-3" d="M129.96,46.88c-.38-.45-.53-1.01-.45-1.69,0-.08.03-.21.07-.4l1.11-4.6c.19-.78.58-1.38,1.18-1.79.6-.41,1.31-.57,2.12-.47.73.08,1.28.35,1.66.8.38.45.53,1.02.45,1.7,0,.08-.03.21-.07.4l-.12.52s-.04.08-.08.11c-.04.03-.08.04-.13.03l-1.56-.18s-.08-.03-.1-.06c-.02-.04-.03-.08-.01-.12l.13-.54s.02-.09.03-.16c.03-.23-.01-.42-.12-.57-.11-.15-.27-.24-.48-.27-.23-.03-.44.04-.62.19-.19.15-.31.36-.38.63l-1.13,4.63c-.06.27-.04.5.06.69.1.18.26.29.5.32.24.03.45-.03.64-.18.19-.15.31-.36.38-.63l.27-1.09s-.01-.07-.05-.08l-.59-.07s-.08-.03-.1-.06c-.02-.04-.03-.08-.01-.12l.3-1.21s.03-.08.07-.11c.04-.03.08-.04.13-.03l2.38.28c.1.01.15.07.13.18l-.62,2.52c-.18.78-.58,1.38-1.19,1.79s-1.31.57-2.11.47c-.74-.09-1.29-.35-1.67-.8Z"/>
      <path class="cls-3" d="M143,39.15s.03.08.01.12l-.32,1.32s-.04.08-.08.11c-.04.03-.08.04-.12.04l-1.68-.2s-.04,0-.05.01c-.02.01-.02.03-.03.05l-1.86,7.65s-.04.08-.08.11c-.04.03-.08.04-.12.03l-1.57-.18s-.08-.03-.1-.06c-.02-.04-.03-.08-.01-.12l1.86-7.65s0-.07-.05-.08l-1.6-.19c-.1-.01-.15-.07-.13-.18l.32-1.32s.04-.08.08-.11c.04-.03.08-.04.12-.04l5.32.62s.08.03.1.06Z"/>
      <path class="cls-3" d="M148.44,41.38s-.08.04-.12.03l-2.8-.33s-.07.02-.08.06l-.53,2.15s.01.07.05.08l1.62.19s.08.03.1.06c.02.03.03.08.01.12l-.32,1.32s-.04.08-.08.11c-.04.03-.08.04-.12.03l-1.6-.19c-.06,0-.09.01-.09.06l-.52,2.17s0,.07.05.08l2.79.33s.08.03.11.06c.03.04.04.08.02.12l-.32,1.32s-.04.08-.08.11c-.04.03-.08.04-.12.03l-4.6-.54s-.08-.03-.1-.06c-.02-.04-.03-.08-.01-.12l2.24-9.2s.04-.08.08-.11c.04-.03.08-.04.12-.03l4.6.54s.08.03.1.06c.02.04.03.08.01.12l-.32,1.32s-.04.08-.08.11Z"/>
      <path class="cls-3" d="M148.16,49.22c-.15-.2-.22-.43-.19-.69.04-.37.19-.66.45-.86s.56-.29.9-.25c.29.03.5.14.65.33.15.19.2.42.17.69-.04.35-.19.63-.46.86-.26.22-.56.31-.88.27-.28-.03-.49-.15-.65-.34ZM148.88,46.18s-.03-.08-.01-.12l1.24-5.96s.04-.08.08-.11c.04-.03.08-.04.12-.03l1.57.18s.08.03.1.06c.02.04.03.08.01.12l-1.63,5.91s-.04.08-.08.11c-.04.03-.08.04-.12.04l-1.19-.14s-.08-.03-.1-.06Z"/>
    </g>
  </g>
</svg>